<svg width="556" height="152" viewBox="0 0 556 152" fill="none" xmlns="http://www.w3.org/2000/svg">
<g clip-path="url(#clip0_339_1371)">
<path d="M117.62 72.5418C104.39 63.5633 87.4338 67.2326 78.5488 80.7246C71.1121 91.9923 59.9002 93.4048 55.5553 93.4048C41.398 93.4048 31.7157 83.4685 28.8517 73.1912C28.8354 73.0938 28.8029 73.0126 28.7703 72.9152C28.7378 72.8015 28.7052 72.6879 28.6727 72.558C27.5499 68.2717 27.2732 66.226 27.2732 61.6637C27.2732 37.0827 52.5449 9.70904 88.9634 9.70904C125.382 9.70904 147.578 38.0244 153.078 53.7569C152.981 53.4809 152.899 53.2049 152.802 52.9289C142.192 22.1295 112.95 0 78.5 0C35.1493 0 0 35.0694 0 78.3217C0 116.996 27.9567 150.084 66.7185 150.084C97.6368 150.084 118.417 132.777 127.953 108.943C133.177 95.9051 129.483 80.5785 117.604 72.5255" fill="#003668"/>
<path d="M153.55 55.2668C148.977 39.924 127.465 9.67657 88.947 9.67657C52.5448 9.67657 27.2568 37.0502 27.2568 61.6313C27.2568 66.1936 27.5335 68.2393 28.6563 72.5255C28.1844 70.6422 27.9403 68.7588 27.9403 66.9404C27.9403 41.3365 53.635 23.6069 80.0458 23.6069C115.797 23.6069 144.779 52.523 144.779 88.1931C144.779 116.151 128.653 140.343 105.22 151.984C135.422 141.09 156.984 112.222 156.984 78.338C156.984 70.3175 155.91 63.2386 153.534 55.2831" fill="#E6002D"/>
</g>
<path d="M205.24 97.404H243.064V106.14H194.68V40.86H205.24V97.404ZM264.76 37.5H254.2V120.06H264.76V78.3H278.2V69.66H264.76V37.5ZM332.532 41.34V78.204H296.436V97.98H333.876V106.62H285.876V69.564H321.972V49.98H285.876V41.34H332.532ZM356.916 37.5V69.66H370.356V78.3H356.916V120.06H346.356V37.5H356.916ZM423.537 84.54C427.441 84.54 431.057 85.404 434.385 87.132C437.713 88.796 440.337 91.132 442.257 94.14C444.241 97.148 445.233 100.572 445.233 104.412C445.233 108.252 444.241 111.676 442.257 114.684C440.337 117.692 437.713 120.028 434.385 121.692C431.057 123.42 427.441 124.284 423.537 124.284C419.633 124.284 416.017 123.42 412.689 121.692C409.361 120.028 406.705 117.692 404.721 114.684C402.801 111.676 401.841 108.252 401.841 104.412C401.841 100.572 402.801 97.148 404.721 94.14C406.705 91.132 409.361 88.796 412.689 87.132C416.017 85.404 419.633 84.54 423.537 84.54ZM429.873 76.284L422.385 82.908L402.129 59.1L381.681 83.388L374.193 76.764L398.577 48.06H376.593V39.42H426.897V48.06H405.681L429.873 76.284ZM438.513 84.54V37.5H449.073V55.74H462.513V64.38H449.073V84.54H438.513ZM423.537 115.644C426.673 115.644 429.297 114.588 431.409 112.476C433.585 110.428 434.673 107.74 434.673 104.412C434.673 101.084 433.585 98.396 431.409 96.348C429.297 94.236 426.673 93.18 423.537 93.18C420.337 93.18 417.681 94.236 415.569 96.348C413.457 98.396 412.401 101.084 412.401 104.412C412.401 107.74 413.457 110.428 415.569 112.476C417.681 114.588 420.337 115.644 423.537 115.644ZM483.629 97.98H520.109V106.62H473.069V49.98H469.229V41.34H519.341V49.98H483.629V69.372H512.621V78.012H483.629V97.98ZM519.341 78.3H536.429V120.06H546.989V37.5H536.429V69.66H519.341V78.3Z" fill="#595757"/>
<defs>
<clipPath id="clip0_339_1371">
<rect width="157" height="152" fill="white"/>
</clipPath>
</defs>
</svg>
