<?xml version="1.0"?>
<svg width="556" height="152" xmlns="http://www.w3.org/2000/svg" xmlns:svg="http://www.w3.org/2000/svg">
 <defs>
  <clipPath id="clip0_339_1371">
   <rect fill="white" height="152" id="svg_1" width="157"/>
  </clipPath>
 </defs>
 <g class="layer">
  <title>Layer 1</title>
  <g clip-path="url(#clip0_339_1371)" id="svg_2">
   <path d="m117.62,72.54c-13.23,-8.98 -30.19,-5.31 -39.07,8.18c-7.44,11.27 -18.65,12.68 -22.99,12.68c-14.16,0 -23.84,-9.93 -26.71,-20.21c-0.01,-0.1 -0.05,-0.18 -0.08,-0.27c-0.03,-0.12 -0.06,-0.23 -0.1,-0.36c-1.12,-4.29 -1.4,-6.33 -1.4,-10.9c0,-24.58 25.27,-51.95 61.69,-51.95c36.42,0 58.62,28.31 64.12,44.05c-0.1,-0.28 -0.18,-0.56 -0.28,-0.83c-10.61,-30.8 -39.85,-52.93 -74.3,-52.93c-43.35,0 -78.5,35.07 -78.5,78.32c0,38.68 27.96,71.76 66.72,71.76c30.92,0 51.7,-17.3 61.23,-41.14c5.23,-13.03 1.53,-28.36 -10.35,-36.41" fill="#003668" id="svg_3"/>
   <path d="m153.55,55.27c-4.57,-15.35 -26.08,-45.59 -64.6,-45.59c-36.41,0 -61.69,27.37 -61.69,51.95c0,4.56 0.27,6.61 1.4,10.9c-0.48,-1.89 -0.72,-3.77 -0.72,-5.59c0,-25.6 25.69,-43.33 52.11,-43.33c35.75,0 64.73,28.91 64.73,64.58c0,27.96 -16.13,52.15 -39.56,63.79c30.2,-10.89 51.76,-39.76 51.76,-73.64c0,-8.02 -1.07,-15.1 -3.45,-23.06" fill="#E6002D" id="svg_4"/>
  </g>
  <text fill="#3f3f3f" font-family="Fantasy" font-size="24" font-weight="bold" id="svg_7" stroke-width="0" text-anchor="middle" transform="matrix(4.19362 0 0 4.46611 -479.556 -492.335)" x="199.48" xml:space="preserve" y="135.55">누리장터</text>
 </g>
</svg>